<svg id="visual" viewBox="0 0 900 600" width="900" height="600" xmlns="http://www.w3.org/2000/svg" xmlns:xlink="http://www.w3.org/1999/xlink" version="1.1"><path d="M163 0L160.3 6.7C157.7 13.3 152.3 26.7 149.8 40C147.3 53.3 147.7 66.7 152.2 80C156.7 93.3 165.3 106.7 170.5 120C175.7 133.3 177.3 146.7 171.7 160C166 173.3 153 186.7 151 200C149 213.3 158 226.7 159.5 240C161 253.3 155 266.7 150.2 280C145.3 293.3 141.7 306.7 141 320C140.3 333.3 142.7 346.7 149.2 360C155.7 373.3 166.3 386.7 166.3 400C166.3 413.3 155.7 426.7 155 440C154.3 453.3 163.7 466.7 163 480C162.3 493.3 151.7 506.7 151.7 520C151.7 533.3 162.3 546.7 167.2 560C172 573.3 171 586.7 170.5 593.3L170 600L0 600L0 593.3C0 586.7 0 573.3 0 560C0 546.7 0 533.3 0 520C0 506.7 0 493.3 0 480C0 466.7 0 453.3 0 440C0 426.7 0 413.3 0 400C0 386.7 0 373.3 0 360C0 346.7 0 333.3 0 320C0 306.7 0 293.3 0 280C0 266.7 0 253.3 0 240C0 226.7 0 213.3 0 200C0 186.7 0 173.3 0 160C0 146.7 0 133.3 0 120C0 106.7 0 93.3 0 80C0 66.7 0 53.3 0 40C0 26.7 0 13.3 0 6.7L0 0Z" fill="#eb5e28"></path><path d="M117 0L113.5 6.7C110 13.3 103 26.7 105.2 40C107.3 53.3 118.7 66.7 120.8 80C123 93.3 116 106.7 115.7 120C115.3 133.3 121.7 146.7 121 160C120.3 173.3 112.7 186.7 111.5 200C110.3 213.3 115.7 226.7 118.7 240C121.7 253.3 122.3 266.7 118.5 280C114.7 293.3 106.3 306.7 101.8 320C97.3 333.3 96.7 346.7 99.5 360C102.3 373.3 108.7 386.7 110.5 400C112.3 413.3 109.7 426.7 110.2 440C110.7 453.3 114.3 466.7 116.2 480C118 493.3 118 506.7 119.2 520C120.3 533.3 122.7 546.7 120.3 560C118 573.3 111 586.7 107.5 593.3L104 600L0 600L0 593.3C0 586.7 0 573.3 0 560C0 546.7 0 533.3 0 520C0 506.7 0 493.3 0 480C0 466.7 0 453.3 0 440C0 426.7 0 413.3 0 400C0 386.7 0 373.3 0 360C0 346.7 0 333.3 0 320C0 306.7 0 293.3 0 280C0 266.7 0 253.3 0 240C0 226.7 0 213.3 0 200C0 186.7 0 173.3 0 160C0 146.7 0 133.3 0 120C0 106.7 0 93.3 0 80C0 66.7 0 53.3 0 40C0 26.7 0 13.3 0 6.7L0 0Z" fill="#d2481d"></path><path d="M61 0L64.5 6.7C68 13.3 75 26.7 76.8 40C78.7 53.3 75.3 66.7 74.8 80C74.3 93.3 76.7 106.7 77.2 120C77.7 133.3 76.3 146.7 72.5 160C68.7 173.3 62.3 186.7 62.7 200C63 213.3 70 226.7 72 240C74 253.3 71 266.7 68.7 280C66.3 293.3 64.7 306.7 63.3 320C62 333.3 61 346.7 62.7 360C64.3 373.3 68.7 386.7 68.2 400C67.7 413.3 62.3 426.7 62.5 440C62.7 453.3 68.3 466.7 71.7 480C75 493.3 76 506.7 76.8 520C77.7 533.3 78.3 546.7 77.5 560C76.7 573.3 74.3 586.7 73.2 593.3L72 600L0 600L0 593.3C0 586.7 0 573.3 0 560C0 546.7 0 533.3 0 520C0 506.7 0 493.3 0 480C0 466.7 0 453.3 0 440C0 426.7 0 413.3 0 400C0 386.7 0 373.3 0 360C0 346.7 0 333.3 0 320C0 306.7 0 293.3 0 280C0 266.7 0 253.3 0 240C0 226.7 0 213.3 0 200C0 186.7 0 173.3 0 160C0 146.7 0 133.3 0 120C0 106.7 0 93.3 0 80C0 66.7 0 53.3 0 40C0 26.7 0 13.3 0 6.7L0 0Z" fill="#b93113"></path></svg>